# xmcd
#
# Track frame offsets: 
#        150
#        25325
#        51204
#        71841
#        93337
#        118733
#        141789
#        161768
#        178960
#        199617
#        217853
#        239268
#        254934
#        274238
#        297352
#        319350
#
# Disc length: 4497 seconds
#
# Revision: 1
# Processed by: cddbd v1.5.2PL0 Copyright (c) Steve Scherf et al.
# Submitted via: ExactAudioCopyFreeDBPlugin 1.0
#
DISCID=04118f10
DTITLE=群星 - TEST-CD试音极品14CDB
DYEAR=2013
DGENRE=stereo
TTITLE0=乌兰巴托的夜晚
TTITLE1=蒙古人
TTITLE2=呼伦尔大草原
TTITLE3=我的九寨
TTITLE4=牧羊姑娘
TTITLE5=敖包相会
TTITLE6=天路
TTITLE7=美丽的草原我的家
TTITLE8=高原红
TTITLE9=梦中的唐古拉
TTITLE10=天边
TTITLE11=陪你一起看草原
TTITLE12=青藏高原
TTITLE13=卓玛
TTITLE14=在那东山顶上
TTITLE15=我和草原有个约定
EXTD=
EXTT0=
EXTT1=
EXTT2=
EXTT3=
EXTT4=
EXTT5=
EXTT6=
EXTT7=
EXTT8=
EXTT9=
EXTT10=
EXTT11=
EXTT12=
EXTT13=
EXTT14=
EXTT15=
PLAYORDER=
